<?xml version="1.0" standalone="no"?>
<!DOCTYPE svg PUBLIC "-//W3C//DTD SVG 20010904//EN"
 "http://www.w3.org/TR/2001/REC-SVG-20010904/DTD/svg10.dtd">
<svg version="1.0" xmlns="http://www.w3.org/2000/svg"
 width="700.000000pt" height="700.000000pt" viewBox="0 0 700.000000 700.000000"
 preserveAspectRatio="xMidYMid meet">
<metadata>
Created by potrace 1.14, written by Peter Selinger 2001-2017
</metadata>
<g transform="translate(0.000000,700.000000) scale(0.100000,-0.100000)"
fill="#000000" stroke="none">
<path d="M5970 6993 c-376 -39 -904 -238 -1362 -514 -1480 -892 -2851 -2524
-3153 -3752 -45 -184 -57 -273 -56 -452 0 -221 24 -336 104 -490 42 -81 201
-239 283 -282 112 -59 231 -92 363 -101 318 -22 661 46 1025 202 153 66 472
227 591 299 364 219 831 558 1034 753 72 69 74 72 74 118 -1 27 -9 58 -19 73
-16 26 -16 27 1 38 43 24 209 183 221 210 7 17 13 24 14 18 1 -37 116 -56 169
-28 59 30 79 126 38 187 l-24 34 27 12 c29 13 217 211 212 224 -1 5 10 2 25
-5 48 -24 81 -28 115 -14 38 16 119 101 229 237 584 729 951 1413 1079 2010
31 142 40 455 17 576 -18 96 -64 210 -116 292 -49 75 -153 179 -231 230 -74
48 -243 106 -353 121 -74 10 -228 12 -307 4z m38 -299 c29 -20 56 -73 78 -155
28 -97 25 -339 -5 -479 -120 -565 -514 -1248 -1120 -1945 -128 -147 -535 -554
-691 -691 -661 -581 -1384 -999 -1930 -1114 -123 -26 -360 -38 -436 -22 -27 6
-88 27 -136 47 -102 43 -99 34 -73 191 52 323 280 855 528 1231 l60 92 23 -55
c44 -108 117 -173 223 -195 76 -16 257 3 360 37 153 51 420 204 626 359 248
186 594 522 790 768 222 277 402 581 461 782 37 123 40 295 7 367 -33 72 -95
132 -168 164 -36 16 -65 31 -65 34 1 11 356 213 519 295 310 155 537 236 821
294 69 14 103 13 128 -5z"/>
<path d="M903 2218 c-187 -160 -615 -596 -634 -646 -14 -36 6 -96 41 -126 34
-28 87 -42 127 -31 29 7 433 400 579 563 76 85 84 98 84 134 0 54 -26 94 -75
118 -57 27 -78 25 -122 -12z"/>
<path d="M1254 1430 c-44 -22 -676 -651 -732 -729 -69 -96 -12 -211 106 -211
35 0 49 10 173 124 229 211 617 609 635 651 28 68 -4 143 -72 171 -45 19 -62
18 -110 -6z"/>
<path d="M2054 1087 c-74 -42 -629 -609 -640 -653 -25 -98 83 -202 165 -159
80 41 654 620 667 672 10 37 -24 112 -60 134 -35 21 -100 24 -132 6z"/>
<path d="M173 349 c-51 -25 -139 -116 -159 -165 -46 -109 79 -224 184 -170 39
20 146 135 161 173 26 63 -9 142 -75 169 -45 19 -62 18 -111 -7z"/>
</g>
</svg>
